<?xml version="1.0" encoding="UTF-8" standalone="no"?>
<svg
   xmlns:dc="http://purl.org/dc/elements/1.1/"
   xmlns:cc="http://creativecommons.org/ns#"
   xmlns:rdf="http://www.w3.org/1999/02/22-rdf-syntax-ns#"
   xmlns:svg="http://www.w3.org/2000/svg"
   xmlns="http://www.w3.org/2000/svg"
   xmlns:xlink="http://www.w3.org/1999/xlink"
   xmlns:sodipodi="http://sodipodi.sourceforge.net/DTD/sodipodi-0.dtd"
   xmlns:inkscape="http://www.inkscape.org/namespaces/inkscape"
   viewBox="0 0 9.413 7.684"
   version="1.1"
   id="svg87"
   sodipodi:docname="a11y-animation.svg"
   inkscape:version="1.0.2 (394de47547, 2021-03-26)">
  <metadata
     id="metadata93">
    <rdf:RDF>
      <cc:Work
         rdf:about="">
        <dc:format>image/svg+xml</dc:format>
        <dc:type
           rdf:resource="http://purl.org/dc/dcmitype/StillImage" />
      </cc:Work>
    </rdf:RDF>
  </metadata>
  <defs
     id="defs91" />
  <sodipodi:namedview
     pagecolor="#ffffff"
     bordercolor="#666666"
     borderopacity="1"
     objecttolerance="10"
     gridtolerance="10"
     guidetolerance="10"
     inkscape:pageopacity="0"
     inkscape:pageshadow="2"
     inkscape:window-width="1920"
     inkscape:window-height="1016"
     id="namedview89"
     showgrid="false"
     inkscape:zoom="90.509668"
     inkscape:cx="5.3419268"
     inkscape:cy="2.207732"
     inkscape:window-x="0"
     inkscape:window-y="27"
     inkscape:window-maximized="1"
     inkscape:current-layer="svg87" />
  <g
     class="card"
     id="g28">
    <path
       d="M3.672 2.293h4.253c.13 0 .234.104.234.234v2.622c0 .13-.104.233-.234.233H3.672a.233.233 0 01-.234-.233V2.527c0-.13.104-.234.234-.234z"
       fill="#fff"
       paint-order="markers fill stroke"
       id="path2" />
    <path
       d="M4.147 3.226h.174v.527h.632v-.527h.173v1.285h-.173v-.612H4.32v.612h-.174zm1.319.321h.158v.964h-.158zm0-.375h.158v.2h-.158z"
       aria-label="Hi"
       fill="#8d8d8d"
       id="path4" />
    <path
       d="M6.958 5.376V2.79"
       fill="none"
       stroke="green"
       stroke-width=".059"
       id="path6" />
    <g
       paint-order="markers fill stroke"
       id="g12">
      <path
         d="M6.437 3.521s.113.254.249.39.205.141.244.102z"
         fill="#8fff8f"
         id="path8" />
      <path
         d="M6.437 3.521s.254.113.39.249.141.205.103.243z"
         fill="green"
         id="path10" />
    </g>
    <g
       stroke-width=".912"
       paint-order="markers fill stroke"
       id="g18">
      <path
         d="M7.528 4.03s-.124.278-.273.427c-.149.149-.224.155-.267.113z"
         fill="#8fff8f"
         id="path14" />
      <path
         d="M7.528 4.03s-.278.123-.427.272c-.15.15-.156.225-.113.268z"
         fill="green"
         id="path16" />
    </g>
    <g
       paint-order="markers fill stroke"
       id="g24">
      <path
         d="M6.969 2.6s-.201.183-.201.571c0 .388.09.393.2.393.112 0 .202-.005.202-.393s-.2-.571-.2-.571z"
         fill="#ff2d79"
         id="path20" />
      <path
         d="M6.8 2.957s-.032-.174-.032.214.09.393.2.393c.235-.02-.14-.412-.168-.607z"
         fill="#d42100"
         id="path22" />
    </g>
    <path
       d="M8.001 2.748a.292.292 0 11-.584 0 .292.292 0 01.584 0z"
       fill="#5858ff"
       paint-order="markers fill stroke"
       id="path26" />
  </g>
  <g
     id="g958"
     class="contrast">
    <path
       d="M 1.518,2.02 A 0.212,0.212 0 0 0 1.305,2.233 V 5.45 a 0.212,0.212 0 0 0 0.213,0.213 h 3.51 A 0.212,0.212 0 0 0 5.24,5.45 V 4.48 L 6.253,3.895 L 5.24,3.31 V 2.233 A 0.212,0.212 0 0 0 5.028,2.02 Z"
       fill="#ffffff"
       stroke="#000000"
       stroke-width="0.104"
       stroke-linecap="round"
       stroke-linejoin="round"
       stroke-dashoffset="16.97"
       paint-order="markers fill stroke"
       id="path30" />
    <g
       class="contrast-small-fail"
       id="g36">
      <path
         fill="#ffffff"
         d="m 4.548,3.449 a 0.355,0.355 0 1 0 0.003,0 z"
         id="path32" />
      <path
         d="M 4.547,3.377 A 0.427,0.427 0 0 0 4.124,3.804 A 0.427,0.427 0 0 0 4.551,4.231 A 0.427,0.427 0 0 0 4.979,3.804 A 0.427,0.427 0 0 0 4.551,3.377 a 0.427,0.427 0 0 0 -0.004,0 z M 4.38,3.58 L 4.551,3.752 L 4.722,3.58 L 4.775,3.633 L 4.604,3.804 L 4.775,3.975 L 4.722,4.028 L 4.552,3.857 L 4.38,4.027 L 4.328,3.975 l 0.17,-0.17 L 4.328,3.633 Z"
         fill="#ba115b"
         id="path34" />
    </g>
    <g
       class="contrast-small-success"
       id="g42">
      <path
         d="m 4.548,3.432 a 0.372,0.372 0 1 0 0.003,0 z"
         fill="#ffffff"
         id="path38" />
      <path
         fill="#19ad19"
         d="M 4.547,3.377 A 0.427,0.427 0 0 0 4.124,3.804 A 0.427,0.427 0 0 0 4.551,4.231 A 0.427,0.427 0 0 0 4.979,3.804 A 0.427,0.427 0 0 0 4.551,3.377 a 0.427,0.427 0 0 0 -0.004,0 z M 4.772,3.596 L 4.825,3.648 L 4.513,3.96 L 4.461,4.012 L 4.408,3.96 L 4.278,3.83 L 4.33,3.777 l 0.13,0.13 z"
         id="path40" />
    </g>
    <g
       class="contrast-large-fail"
       id="g48">
      <path
         fill="#ffffff"
         d="m 4.548,4.527 a 0.355,0.355 0 1 0 0.003,0 z"
         id="path44" />
      <path
         d="M 4.547,4.455 A 0.427,0.427 0 0 0 4.124,4.882 A 0.427,0.427 0 0 0 4.551,5.31 A 0.427,0.427 0 0 0 4.979,4.882 A 0.427,0.427 0 0 0 4.551,4.455 a 0.427,0.427 0 0 0 -0.004,0 z M 4.38,4.659 l 0.171,0.17 L 4.722,4.659 L 4.775,4.711 L 4.604,4.882 L 4.775,5.054 L 4.722,5.106 L 4.552,4.935 L 4.38,5.106 L 4.328,5.054 l 0.17,-0.172 l -0.17,-0.17 z"
         fill="#ba115b"
         id="path46" />
    </g>
    <g
       class="contrast-large-success"
       id="g54">
      <path
         d="m 4.548,4.51 a 0.372,0.372 0 1 0 0.003,0 z"
         fill="#ffffff"
         id="path50" />
      <path
         fill="#19ad19"
         d="M 4.547,4.455 A 0.427,0.427 0 0 0 4.124,4.882 A 0.427,0.427 0 0 0 4.551,5.31 A 0.427,0.427 0 0 0 4.979,4.882 A 0.427,0.427 0 0 0 4.551,4.455 a 0.427,0.427 0 0 0 -0.004,0 z M 4.772,4.674 L 4.825,4.726 L 4.513,5.038 L 4.461,5.091 L 4.408,5.038 L 4.278,4.908 L 4.33,4.855 l 0.13,0.13 z"
         id="path52" />
    </g>
    <text
       style="line-height:1.25"
       x="1.781"
       y="4.119"
       font-size="1.029px"
       font-family="sans-serif"
       letter-spacing="0"
       word-spacing="0"
       stroke-width="0.223"
       id="text58"><tspan
         x="1.781"
         y="4.119"
         style="-inkscape-font-specification:'Ubuntu, Normal';font-variant-ligatures:normal;font-variant-caps:normal;font-variant-numeric:normal;font-variant-east-asian:normal"
         font-weight="400"
         font-family="Ubuntu"
         stroke-width="0.05"
         id="tspan56">AA</tspan></text>
    <text
       style="line-height:1.25"
       x="1.781"
       y="5.277"
       font-size="1.029px"
       font-family="sans-serif"
       letter-spacing="0"
       word-spacing="0"
       stroke-width="0.223"
       id="text62"><tspan
         x="1.781"
         y="5.277"
         style="-inkscape-font-specification:'Ubuntu, Normal';font-variant-ligatures:normal;font-variant-caps:normal;font-variant-numeric:normal;font-variant-east-asian:normal"
         font-weight="400"
         font-family="Ubuntu"
         stroke-width="0.05"
         id="tspan60">AAA</tspan></text>
    <text
       xml:space="preserve"
       style="font-size:0.979539px;line-height:1.25;font-family:sans-serif;letter-spacing:0px;word-spacing:0px;stroke-width:0.0565121"
       x="1.7264624"
       y="3.0303888"
       id="text937"><tspan
         sodipodi:role="line"
         id="tspan935"
         x="1.7264624"
         y="3.0303888"
         style="font-style:normal;font-variant:normal;font-weight:normal;font-stretch:normal;font-size:0.979539px;font-family:Ubuntu;-inkscape-font-specification:'Ubuntu, Normal';font-variant-ligatures:normal;font-variant-caps:normal;font-variant-numeric:normal;font-variant-east-asian:normal;stroke-width:0.0565121">3.3</tspan></text>
  </g>
  <path
     d="M5.001 2.347a.734.734 0 00.039-1.3.688.688 0 00-.334-.074.674.674 0 00-.334.074.767.767 0 00-.382.646c0 .294.223.598.508.691.137.045.37.028.503-.037zm-.894 4.304c.06-.05.091-.117.168-.364.11-.353.22-.783.301-1.183.058-.281.085-.348.14-.348.067 0 .107.106.203.537.108.48.288 1.142.346 1.27.07.152.286.192.41.075.09-.085.093-.178.012-.441-.253-.827-.41-1.64-.456-2.375-.031-.487-.016-.596.091-.65a1.38 1.38 0 01.326-.049c.596-.037 1.18-.116 1.264-.17.194-.127.106-.462-.123-.464-.041 0-.245.02-.453.047-.98.121-2.233.127-3.384.015-.365-.036-.448-.021-.515.088-.108.178-.003.375.216.407.176.025.995.087 1.154.087.18 0 .292.03.366.1.051.048.055.07.055.304 0 .659-.147 1.549-.399 2.41-.117.402-.145.588-.096.648.107.13.26.153.374.056z"
     fill="#888f9b"
     id="path85" />
  <g
     id="g978"
     class="rgb">
    <rect
       width="3.2360001"
       height="1.1440001"
       x="1.2606009"
       y="2.0733955"
       ry="0.227"
       fill="#ffffff"
       paint-order="markers fill stroke"
       id="rect66" />
    <text
       x="1.7106009"
       y="3.0413954"
       font-size="2.674px"
       stroke-width="0.223"
       id="text76"><tspan
         x="1.7106009"
         y="3.0413954"
         style="-inkscape-font-specification:'Ubuntu, Normal';font-variant-ligatures:normal;font-variant-caps:normal;font-variant-numeric:normal;font-variant-east-asian:normal"
         font-weight="400"
         font-size="1.176px"
         font-family="Ubuntu"
         stroke-width="0.05"
         id="tspan74"><tspan
           class="rgb-r"
           fill="#d20000"
           stroke-width="0.011"
           id="tspan68">R</tspan><tspan
           class="rgb-g"
           fill="#0d9c00"
           stroke-width="0.011"
           id="tspan70">G</tspan><tspan
           class="rgb-b"
           fill="#0000d6"
           stroke-width="0.011"
           id="tspan72">B</tspan></tspan></text>
    <use
       xlink:href="#a"
       transform="translate(0.77)"
       width="100%"
       height="100%"
       class="block-g"
       id="use78"
       x="0"
       y="0" />
    <path
       d="m 2.0816009,2.3173956 a 0.332,0.332 0 0 0 -0.331,0.332 a 0.332,0.332 0 0 0 0.33,0.33 a 0.332,0.332 0 0 0 0.332,-0.33 a 0.332,0.332 0 0 0 -0.331,-0.332 z m -0.265,0.332 c 0,-0.146 0.12,-0.265 0.265,-0.265 c 0.06,0 0.116,0.02 0.162,0.056 l -0.37,0.371 a 0.26,0.26 0 0 1 -0.057,-0.162 z m 0.265,0.265 a 0.262,0.262 0 0 1 -0.163,-0.057 l 0.371,-0.37 a 0.26,0.26 0 0 1 0.057,0.162 c 0,0.145 -0.12,0.265 -0.265,0.265 z"
       id="a"
       class="block-r"
       fill="#000000"
       fill-rule="evenodd"
       stroke="none"
       stroke-width="0.059" />
    <use
       xlink:href="#a"
       transform="translate(1.54)"
       width="100%"
       height="100%"
       class="block-b"
       id="use81"
       x="0"
       y="0" />
  </g>
</svg>
