<?xml version="1.0" encoding="UTF-8" standalone="no"?>
<svg
   xmlns:dc="http://purl.org/dc/elements/1.1/"
   xmlns:cc="http://creativecommons.org/ns#"
   xmlns:rdf="http://www.w3.org/1999/02/22-rdf-syntax-ns#"
   xmlns:svg="http://www.w3.org/2000/svg"
   xmlns="http://www.w3.org/2000/svg"
   xmlns:sodipodi="http://sodipodi.sourceforge.net/DTD/sodipodi-0.dtd"
   xmlns:inkscape="http://www.inkscape.org/namespaces/inkscape"
   viewBox="0 0 9.413 7.684"
   version="1.1"
   id="svg87"
   sodipodi:docname="a11y-animation-add-proto.svg"
   inkscape:version="1.0.2 (394de47547, 2021-03-26)">
  <metadata
     id="metadata93">
    <rdf:RDF>
      <cc:Work
         rdf:about="">
        <dc:format>image/svg+xml</dc:format>
        <dc:type
           rdf:resource="http://purl.org/dc/dcmitype/StillImage" />
        <dc:title></dc:title>
      </cc:Work>
    </rdf:RDF>
  </metadata>
  <defs
     id="defs91" />
  <sodipodi:namedview
     pagecolor="#ffffff"
     bordercolor="#666666"
     borderopacity="1"
     objecttolerance="10"
     gridtolerance="10"
     guidetolerance="10"
     inkscape:pageopacity="0"
     inkscape:pageshadow="2"
     inkscape:window-width="1920"
     inkscape:window-height="1016"
     id="namedview89"
     showgrid="false"
     inkscape:zoom="80.525663"
     inkscape:cx="3.3878311"
     inkscape:cy="3.7672385"
     inkscape:window-x="0"
     inkscape:window-y="27"
     inkscape:window-maximized="1"
     inkscape:current-layer="svg87"
     inkscape:document-rotation="0" />
  <path
     d="m 3.672,2.293 h 4.253 c 0.13,0 0.234,0.104 0.234,0.234 v 2.622 c 0,0.13 -0.104,0.233 -0.234,0.233 H 3.672 A 0.233,0.233 0 0 1 3.438,5.149 V 2.527 c 0,-0.13 0.104,-0.234 0.234,-0.234 z"
     fill="#ffffff"
     paint-order="markers fill stroke"
     id="path2" />
  <path
     d="M 6.958,5.376 V 2.79"
     fill="none"
     stroke="#008000"
     stroke-width="0.059"
     id="path6" />
  <path
     d="m 7.1992351,2.637523 c 0,0 -0.240866,0.1244069 -0.3410179,0.4981784 C 6.7580657,3.5094735 6.8434748,3.5375212 6.94944,3.5659147 c 0.107893,0.02891 0.1958831,0.047325 0.296035,-0.3264476 C 7.3456277,2.8656951 7.2001983,2.6377812 7.2001983,2.6377812 Z"
     fill="#ff2d79"
     id="path947"
     style="fill:#fe2dff;fill-opacity:1;stroke-width:0.997313;paint-order:markers fill stroke"
     inkscape:transform-center-y="-0.45139192"
     inkscape:transform-center-x="-0.095099206" />
  <path
     d="m 6.9543595,2.4361212 c 0,0 -0.2354971,0.2144082 -0.2354979,0.6689991 c 8e-7,0.4545917 0.1054471,0.4604498 0.2343262,0.4604497 c 0.1312224,-2e-7 0.2366687,-0.00586 0.2366687,-0.4604495 C 7.1898565,2.6505287 6.955531,2.436121 6.955531,2.436121 Z"
     fill="#ff2d79"
     id="path945"
     style="fill:#ff2db5;fill-opacity:1;stroke-width:1.17163;paint-order:markers fill stroke"
     inkscape:transform-center-y="-0.55720024" />
  <path
     d="m 6.7211606,2.6326287 c 0,0 -0.1467872,0.2287871 -0.046365,0.6035663 C 6.7752169,3.6109742 6.8634444,3.5925101 6.9696962,3.56404 C 7.0778801,3.5350523 7.1635191,3.506929 7.0630972,3.1321497 C 6.9626754,2.7573705 6.7221265,2.6323699 6.7221265,2.6323699 Z"
     fill="#ff2d79"
     id="path20"
     style="paint-order:markers fill stroke" />
  <path
     d="m 8.001,3.7270566 a 0.292,0.292 0 1 1 -0.584,0 a 0.292,0.292 0 0 1 0.584,0 z"
     fill="#5858ff"
     paint-order="markers fill stroke"
     id="path941" />
  <path
     id="path920"
     style="fill:#ffffff;fill-opacity:1;stroke:#000000;stroke-width:0;stroke-linecap:round;stroke-miterlimit:4;stroke-dasharray:none;stroke-dashoffset:16.9701"
     d="m 7.7768862,3.6337773 c 0,0.1620489 -0.1313659,0.2934155 -0.2934156,0.2934155 c -0.095772,0 -0.1808281,-0.045886 -0.2343816,-0.116872 C 7.3037375,3.406893 7.6289609,3.4062939 7.6452593,3.388959 c 0.079319,0.052523 0.1316265,0.1425622 0.1316269,0.2448183 z"
     sodipodi:nodetypes="ssccs" />
  <path
     d="m 6.6314172,2.9903814 c 0,0 -0.089956,-0.1786424 0.028993,0.2403567 c 0.1189507,0.4189992 0.2234575,0.3983566 0.349314,0.3665273 C 7.2724688,3.5076685 6.7232355,3.1928587 6.6314172,2.9903814 Z"
     fill="#d42100"
     id="path22"
     style="stroke-width:1.15077;paint-order:markers fill stroke" />
</svg>
