<?xml version="1.0" encoding="UTF-8" standalone="no"?>
<svg
   xmlns:dc="http://purl.org/dc/elements/1.1/"
   xmlns:cc="http://creativecommons.org/ns#"
   xmlns:rdf="http://www.w3.org/1999/02/22-rdf-syntax-ns#"
   xmlns:svg="http://www.w3.org/2000/svg"
   xmlns="http://www.w3.org/2000/svg"
   xmlns:xlink="http://www.w3.org/1999/xlink"
   xmlns:sodipodi="http://sodipodi.sourceforge.net/DTD/sodipodi-0.dtd"
   xmlns:inkscape="http://www.inkscape.org/namespaces/inkscape"
   viewBox="0 0 9.413 7.684"
   version="1.1"
   id="svg1095"
   sodipodi:docname="performance-animation.svg"
   inkscape:version="1.0.2 (394de47547, 2021-03-26)">
  <metadata
     id="metadata1099">
    <rdf:RDF>
      <cc:Work
         rdf:about="">
        <dc:format>image/svg+xml</dc:format>
        <dc:type
           rdf:resource="http://purl.org/dc/dcmitype/StillImage" />
      </cc:Work>
    </rdf:RDF>
  </metadata>
  <sodipodi:namedview
     pagecolor="#ffffff"
     bordercolor="#666666"
     borderopacity="1"
     objecttolerance="10"
     gridtolerance="10"
     guidetolerance="10"
     inkscape:pageopacity="0"
     inkscape:pageshadow="2"
     inkscape:window-width="1920"
     inkscape:window-height="1016"
     id="namedview1097"
     showgrid="false"
     inkscape:zoom="71.757972"
     inkscape:cx="2.9528255"
     inkscape:cy="3.8444374"
     inkscape:window-x="0"
     inkscape:window-y="27"
     inkscape:window-maximized="1"
     inkscape:current-layer="svg1095" />
  <defs
     id="defs869">
    <linearGradient
       id="perf-d">
      <stop
         offset="0"
         stop-color="#629bff"
         id="stop833" />
      <stop
         offset="1"
         stop-color="#003eaa"
         stop-opacity=".996"
         id="stop835" />
    </linearGradient>
    <linearGradient
       id="perf-c">
      <stop
         offset="0"
         stop-color="#d60000"
         id="stop838" />
      <stop
         offset="1"
         stop-color="#ff8989"
         id="stop840" />
    </linearGradient>
    <linearGradient
       id="perf-b">
      <stop
         offset="0"
         stop-color="#0056eb"
         id="stop843" />
      <stop
         offset=".77"
         stop-color="#0a55db"
         id="stop845" />
      <stop
         offset=".807"
         stop-color="#3c7ff4"
         id="stop847" />
      <stop
         offset=".839"
         stop-color="#1263f1"
         id="stop849" />
      <stop
         offset=".954"
         stop-color="#0b2be8"
         id="stop851" />
      <stop
         offset="1"
         stop-color="#3880ff"
         id="stop853" />
    </linearGradient>
    <linearGradient
       id="perf-a">
      <stop
         offset="0"
         stop-color="#0056eb"
         id="stop856" />
      <stop
         offset=".453"
         stop-color="#1969f4"
         id="stop858" />
      <stop
         offset="1"
         stop-color="#3880ff"
         id="stop860" />
    </linearGradient>
    <linearGradient
       xlink:href="#perf-b"
       id="perf-g"
       gradientUnits="userSpaceOnUse"
       gradientTransform="matrix(.24306 0 0 .24306 -24.461 -87.63)"
       x1="121.506"
       y1="387.748"
       x2="121.506"
       y2="377.14" />
    <linearGradient
       xlink:href="#perf-c"
       id="perf-h"
       gradientUnits="userSpaceOnUse"
       gradientTransform="matrix(.24306 0 0 .24306 -24.461 -87.533)"
       x1="129.93"
       y1="378.776"
       x2="128.408"
       y2="377.335" />
    <linearGradient
       xlink:href="#perf-d"
       id="perf-i"
       gradientUnits="userSpaceOnUse"
       gradientTransform="matrix(.24306 0 0 .24306 -25.093 -87.533)"
       x1="126"
       y1="377.497"
       x2="127.015"
       y2="378.728" />
    <linearGradient
       xlink:href="#perf-d"
       id="perf-j"
       gradientUnits="userSpaceOnUse"
       gradientTransform="matrix(.24306 0 0 .24306 -24.442 -87.533)"
       x1="126"
       y1="377.497"
       x2="127.015"
       y2="378.728" />
    <linearGradient
       xlink:href="#perf-b"
       id="perf-e"
       gradientUnits="userSpaceOnUse"
       gradientTransform="matrix(.24306 0 0 .24306 -24.461 -87.63)"
       x1="121.506"
       y1="387.748"
       x2="121.506"
       y2="377.14" />
    <linearGradient
       xlink:href="#perf-b"
       id="perf-f"
       gradientUnits="userSpaceOnUse"
       gradientTransform="matrix(.24306 0 0 .24306 -24.461 -87.63)"
       x1="121.506"
       y1="387.748"
       x2="121.506"
       y2="377.14" />
  </defs>
  <path
     sodipodi:type="star"
     style="fill:#cccccc;stroke:none;stroke-width:0.6;stroke-linecap:round;stroke-linejoin:round;stroke-dashoffset:16.9701"
     id="path1119"
     sodipodi:sides="3"
     sodipodi:cx="2.2225853"
     sodipodi:cy="4.2265479"
     sodipodi:r1="2.1144159"
     sodipodi:r2="1.0572079"
     sodipodi:arg1="0.52359878"
     sodipodi:arg2="1.5707963"
     inkscape:flatsided="true"
     inkscape:rounded="1.73472e-17"
     inkscape:randomized="0"
     d="m 4.0537231,5.2837557 l -3.66227577,0 L 2.2225852,2.1121318 Z"
     inkscape:transform-center-y="-0.52860395" />
  <g
     id="g1115"
     style="fill:#000000">
    <path
       d="m 2.2256591,4.9123667 c 0,0 0.095266,-0.18539 0.1164358,-0.7095024 l 0.691659,0.1252063 l 6.048e-4,-0.06472 L 2.3538897,3.874727 l -0.00605,-0.3871112 c 0,0 -0.024195,-0.1630102 -0.1013143,-0.2237987 c -0.015121,-0.01119 -0.026311,-0.00998 -0.041735,0 c -0.07712,0.060789 -0.1013143,0.2237987 -0.1013143,0.2237987 l -0.00605,0.3871112 l -0.680469,0.3886235 l 6.048e-4,0.06472 l 0.691659,-0.1252063 c 0.02117,0.5241124 0.1164358,0.7095024 0.1164358,0.7095024"
       id="path1079"
       style="fill:#000000;stroke-width:0.302431" />
    <path
       d="M 2.6269846,4.8440174 V 4.7490541 L 2.2256591,4.609936 L 1.8255433,4.7490541 v 0.096475 l 0.4001158,-0.064115 z"
       id="path1081"
       style="fill:#000000;stroke-width:0.302431" />
    <rect
       width="0.11855283"
       height="0.19204348"
       x="2.4464335"
       y="3.8438792"
       ry="0.030847929"
       id="rect1083"
       style="fill:#000000;stroke-width:0.302431" />
    <rect
       width="0.11855283"
       height="0.19204348"
       x="2.6275895"
       y="3.9352131"
       ry="0.030847929"
       id="rect1085"
       style="fill:#000000;stroke-width:0.302431" />
    <rect
       width="0.11855283"
       height="0.19204348"
       x="-2.0085139"
       y="3.8438792"
       ry="0.030847929"
       transform="scale(-1,1)"
       id="rect1087"
       style="fill:#000000;stroke-width:0.302431" />
    <rect
       width="0.11855283"
       height="0.19204348"
       x="-1.8270555"
       y="3.9352131"
       ry="0.030847929"
       transform="scale(-1,1)"
       id="rect1089"
       style="fill:#000000;stroke-width:0.302431" />
    <path
       d="m 1.678562,4.3501481 a 0.03205765,0.03205765 0 0 0 -0.032058,0.032058 a 0.03205765,0.03205765 0 0 0 0,0.00302 L 1.673723,4.8524815 L 1.710015,4.3867383 a 0.03205765,0.03205765 0 0 0 0,-0.00484 A 0.03205765,0.03205765 0 0 0 1.67826,4.3498403 Z m -0.2210768,0.0995 a 0.03205765,0.03205765 0 0 0 -0.03236,0.03236 a 0.03205765,0.03205765 0 0 0 3.024e-4,0.00302 l 0.026916,0.4666506 l 0.036896,-0.464836 a 0.03205765,0.03205765 0 0 0 0,-0.00484 a 0.03205765,0.03205765 0 0 0 -0.031755,-0.03236 z m 1.3418849,-0.0995 a 0.03205765,0.03205765 0 0 0 -0.032058,0.032058 a 0.03205765,0.03205765 0 0 0 0,0.00302 l 0.026916,0.466953 l 0.036897,-0.4651384 a 0.03205765,0.03205765 0 0 0 3.025e-4,-0.00484 a 0.03205765,0.03205765 0 0 0 -0.032058,-0.032058 z m 0.2038383,0.0995 a 0.03205765,0.03205765 0 0 0 -0.032058,0.03236 a 0.03205765,0.03205765 0 0 0 0,0.00302 l 0.027219,0.4666506 l 0.036594,-0.464836 a 0.03205765,0.03205765 0 0 0 6.049e-4,-0.00484 a 0.03205765,0.03205765 0 0 0 -0.03236,-0.03236 z"
       id="path1091"
       style="fill:#000000;stroke-width:0.302431" />
  </g>
  <circle
     style="fill:#0000ff;stroke-width:1.27501;stroke-linecap:round;stroke-linejoin:round;stroke-dashoffset:16.9701"
     id="path1117"
     cx="7.1257896"
     cy="2.2794187"
     r="2.1929984" />
  <path
     sodipodi:type="star"
     style="fill:#cccccc;stroke:none;stroke-width:0.240749;stroke-linecap:round;stroke-linejoin:round;stroke-dashoffset:16.9701"
     id="path1121"
     sodipodi:sides="3"
     sodipodi:cx="4.0187602"
     sodipodi:cy="2.9914666"
     sodipodi:r1="0.84840655"
     sodipodi:r2="0.42420328"
     sodipodi:arg1="0.52359878"
     sodipodi:arg2="1.5707963"
     inkscape:flatsided="true"
     inkscape:rounded="1.73472e-17"
     inkscape:randomized="0"
     d="m 4.7535018,3.4156698 l -1.4694832,0 L 4.0187602,2.14306 Z"
     inkscape:transform-center-y="-0.21210162" />
  <path
     sodipodi:type="star"
     style="fill:#cccccc;stroke:none;stroke-width:0.240749;stroke-linecap:round;stroke-linejoin:round;stroke-dashoffset:16.9701"
     id="path1131"
     sodipodi:sides="3"
     sodipodi:cx="0.35648446"
     sodipodi:cy="2.9914665"
     sodipodi:r1="0.84840655"
     sodipodi:r2="0.42420328"
     sodipodi:arg1="0.52359878"
     sodipodi:arg2="1.5707963"
     inkscape:flatsided="true"
     inkscape:rounded="1.73472e-17"
     inkscape:randomized="0"
     d="m 1.0912261,3.4156698 l -1.46948326,0 L 0.35648448,2.14306 Z"
     inkscape:transform-center-y="-0.21210162" />
</svg>
