<svg xmlns="http://www.w3.org/2000/svg" xmlns:xlink="http://www.w3.org/1999/xlink" viewBox="0 0 9.413 7.684">
  <defs>
    <linearGradient id="performance-d">
      <stop offset="0" stop-color="#629bff"/>
      <stop offset="1" stop-color="#003eaa" stop-opacity=".996"/>
    </linearGradient>
    <linearGradient id="performance-c">
      <stop offset="0" stop-color="#d60000"/>
      <stop offset="1" stop-color="#ff8989"/>
    </linearGradient>
    <linearGradient id="performance-b">
      <stop offset="0" stop-color="#0056eb"/>
      <stop offset=".77" stop-color="#0a55db"/>
      <stop offset=".807" stop-color="#3c7ff4"/>
      <stop offset=".839" stop-color="#1263f1"/>
      <stop offset=".954" stop-color="#0b2be8"/>
      <stop offset="1" stop-color="#3880ff"/>
    </linearGradient>
    <linearGradient id="performance-a">
      <stop offset="0" stop-color="#0056eb"/>
      <stop offset=".453" stop-color="#1969f4"/>
      <stop offset="1" stop-color="#3880ff"/>
    </linearGradient>
    <linearGradient {...{"xlink:href":"#performance-b"}} id="performance-e" gradientUnits="userSpaceOnUse" gradientTransform="matrix(.24306 0 0 .24306 -24.462 -87.63)" x1="121.506" y1="387.748" x2="121.506" y2="377.14"/>
    <linearGradient {...{"xlink:href":"#performance-c"}} id="performance-f" x1="129.93" y1="378.776" x2="128.408" y2="377.335" gradientUnits="userSpaceOnUse" gradientTransform="matrix(.24306 0 0 .24306 -24.462 -87.534)"/>
    <linearGradient {...{"xlink:href":"#performance-d"}} id="performance-h" x1="126" y1="377.497" x2="127.015" y2="378.728" gradientUnits="userSpaceOnUse" gradientTransform="matrix(.24306 0 0 .24306 -24.443 -87.534)"/>
    <linearGradient {...{"xlink:href":"#performance-d"}} id="performance-g" gradientUnits="userSpaceOnUse" x1="126" y1="377.497" x2="127.015" y2="378.728" gradientTransform="matrix(.24306 0 0 .24306 -25.093 -87.534)"/>
  </defs>
  <g class="files">
    <g class="file-img-2">
      <path d="M4.98.861L4.837.697a.026.026 0 00-.02-.009h-.363a.03.03 0 00-.03.03v.716a.03.03 0 00.03.03h.502a.03.03 0 00.03-.03V.878A.026.026 0 004.98.861z"/>
      <path d="M4.454 1.436V.719h.353v.156c0 .008.006.014.015.014h.134v.547z" fill="#e580ff"/>
      <path d="M4.507 1.326c-.013-.003-.022-.016-.02-.03V.975c.005-.012.016-.022.03-.019h.385c.011.005.022.016.019.03v.323c-.005.011-.017.022-.03.019h-.384zm.075-.154c.02-.024.04-.05.062-.073.021-.015.036.013.05.025.015.014.026.034.045.042.019-.002.029-.03.05-.024.035.035.067.072.1.108 0-.083.002-.166 0-.248C4.89.984 4.87.986 4.87.986h-.334c-.026-.004-.017.028-.019.043v.22l.065-.077zm.22-.064c-.031-.007-.046-.046-.028-.071.016-.025.057-.027.074-.003.021.023.009.064-.02.073a.044.044 0 01-.027.001z" fill="#405"/>
    </g>
    <g class="file-img-1">
      <path d="M4.98.861L4.836.697a.026.026 0 00-.02-.009h-.362a.03.03 0 00-.03.03v.716a.03.03 0 00.03.03h.502a.03.03 0 00.03-.03V.88A.026.026 0 004.98.86z"/>
      <path d="M4.454 1.436V.719h.352v.156c0 .008.007.015.016.015h.134v.546z" fill="#e580ff"/>
      <path d="M4.507 1.326c-.013-.003-.023-.016-.02-.029V.974c.005-.012.016-.021.029-.019H4.9c.012.005.022.016.02.03v.323c-.005.011-.017.022-.03.02-.128 0-.256 0-.384-.002zm.075-.154c.02-.024.04-.05.062-.073.02-.015.036.013.049.025.015.014.027.034.046.042.019-.002.029-.03.05-.023.034.034.067.07.1.107v-.248C4.89.984 4.87.986 4.87.986h-.333c-.026-.004-.017.028-.019.043v.22zm.219-.064c-.03-.006-.046-.046-.027-.07.016-.026.056-.028.074-.004.021.023.008.064-.02.073a.044.044 0 01-.027.001z" fill="#405"/>
    </g>
    <g class="file-img-0">
      <path d="M4.98.861L4.836.697a.026.026 0 00-.02-.009h-.362a.03.03 0 00-.03.03v.717a.03.03 0 00.03.03h.502a.03.03 0 00.03-.03V.878A.026.026 0 004.98.86z"/>
      <path d="M4.454 1.436V.719h.352v.155c0 .009.007.016.015.016h.135v.546z" fill="#e580ff"/>
      <path d="M4.506 1.327c-.012-.004-.022-.017-.02-.03V.974c.005-.011.017-.022.03-.02h.386c.011.006.022.017.019.03v.323c-.005.012-.017.022-.03.02h-.384zm.076-.155c.02-.024.04-.05.062-.073.02-.015.036.012.049.025.015.014.027.034.046.042.019-.003.029-.03.05-.024l.1.107v-.248c.001-.017-.02-.015-.02-.015h-.334c-.025-.004-.016.028-.018.043v.22zm.219-.064c-.03-.007-.046-.046-.027-.07.016-.027.056-.028.074-.004.021.023.008.064-.021.073a.044.044 0 01-.027.001z" fill="#405"/>
    </g>
    <g class="file-js">
      <path d="M4.98.861L4.836.698a.026.026 0 00-.02-.01h-.362a.03.03 0 00-.03.031v.715a.03.03 0 00.03.03h.502a.03.03 0 00.03-.03V.879A.026.026 0 004.98.862z"/>
      <path d="M4.454 1.435V.719h.352v.156c0 .008.007.015.016.015h.134v.545z" fill="#f5de19"/>
      <path d="M4.725 1.238a.062.062 0 00.057.035c.024 0 .039-.012.039-.028 0-.02-.016-.027-.042-.038L4.765 1.2c-.041-.017-.069-.04-.069-.086 0-.042.033-.075.084-.075a.085.085 0 01.081.045l-.044.03a.039.039 0 00-.037-.026.025.025 0 00-.028.025c0 .017.011.024.035.035l.015.006c.048.02.076.042.076.09 0 .052-.04.08-.095.08a.11.11 0 01-.104-.06zm-.202.005c.01.016.018.03.037.03s.03-.008.03-.037v-.194h.058v.195c0 .06-.035.086-.085.086a.089.089 0 01-.086-.052z"/>
    </g>
    <g class="file-css">
      <path d="M4.98.861L4.836.698a.026.026 0 00-.02-.009h-.362a.03.03 0 00-.03.03v.715c0 .016.013.03.03.03h.502a.03.03 0 00.03-.03V.879A.026.026 0 004.98.86z"/>
      <path d="M4.454 1.435V.719h.352v.156c0 .008.007.015.015.015h.135v.545z" fill="#1572b6"/>
      <path d="M4.56.972l.002.016.002.031.001.014H4.8l-.006.063H4.64l.002.016.003.031v.014h.144l-.008.08-.068.018-.068-.019-.004-.049h-.062l.009.096.125.035.126-.034v-.01l.01-.117.016-.169.001-.016h-.153z" fill="#fff"/>
    </g>
    <g class="file-html">
      <path d="M4.98.862L4.836.698a.026.026 0 00-.02-.01h-.362a.03.03 0 00-.03.031v.715c0 .017.013.03.03.03h.502a.03.03 0 00.03-.03V.879A.026.026 0 004.98.862z"/>
      <path d="M4.454 1.436V.72h.352v.155c0 .008.007.015.016.015h.134v.546z" fill="#e44f26"/>
      <path d="M4.559 1.026l.001.015.014.159h.2l-.006.075-.064.018-.065-.018-.004-.046h-.058l.008.09.118.034.119-.033v-.01l.014-.152.001-.015h-.21l-.005-.06h.22l.002-.013.003-.03v-.014h-.143z" fill="#fff"/>
    </g>
  </g>
  <g class="browser">
    <rect width="5.15" height="3.397" x="2.138" y="4.247" ry=".237" class="browser-body" fill="#fff"/>
    <g class="page">
      <path fill="#d18f8f" paint-order="markers fill stroke" d="M2.138 4.412h5.15v1.469h-5.15z"/>
      <path d="M3.038 6.106h3.445m-3.445.31h2.945m-2.945.309h3.096" fill="none" stroke="gray" stroke-width=".064"/>
      <path fill="#d18f8f" paint-order="markers fill stroke" d="M3.029 6.924h.693v.415h-.693zm.953 0h.693v.415h-.693z"/>
      <circle cx="4.389" cy="5.198" r=".504" fill="#6d06ff" fill-opacity=".579" paint-order="markers fill stroke"/>
      <circle cx="5.057" cy="5.198" r=".504" fill="#25ffc5" fill-opacity=".546" paint-order="markers fill stroke"/>
      <path d="M3.224 7.019l.068.12.07.119h-.276l.069-.12zm.945.233l-.111-.077-.012-.134.123-.058.122.058-.011.134z" fill="#714c4c" paint-order="markers fill stroke"/>
      <path d="M3.038 7.514h1.207" fill="none" stroke="gray" stroke-width=".064"/>
    </g>
    <g class="title-bar-windowsxp">
      <path d="M2.387 3.985a.254.254 0 00-.255.255v3.437h5.15V4.24a.254.254 0 00-.255-.255zm-.158.644h4.956v2.95H2.229z" class="title-bar-frame" fill="url(#e)" paint-order="markers fill stroke"/>
      <g class="title-bar-close">
        <rect width=".482" height=".482" x="6.66" y="4.088" ry=".095" class="hover" fill="url(#f)" stroke="#fff" stroke-width=".026" stroke-linecap="round" stroke-dashoffset="16.97"/>
        <g fill="none" stroke="#fff" stroke-width=".064">
          <path d="M6.749 4.18l.304.305M6.749 4.485l.304-.305"/>
        </g>
      </g>
      <g class="title-bar-collapse">
        <rect width=".482" height=".482" x="5.359" y="4.088" ry=".095" class="hover" fill="url(#g)" stroke="#fff" stroke-width=".026" stroke-linecap="round" stroke-dashoffset="16.97"/>
        <path d="M5.644 4.44h-.201" fill="none" stroke="#fff" stroke-width=".064"/>
      </g>
      <g class="title-bar-expand">
        <rect width=".482" height=".482" x="6.01" y="4.088" ry=".095" class="hover" fill="url(#h)" stroke="#fff" stroke-width=".026" stroke-linecap="round" stroke-dashoffset="16.97"/>
        <g class="expand" fill="none" stroke="#fff">
          <path d="M6.111 4.195h.279v.28H6.11z" stroke-width=".051" stroke-linecap="round" stroke-dashoffset="16.97" paint-order="markers fill stroke"/>
          <path d="M6.111 4.24h.279" stroke-width=".05"/>
        </g>
        <path d="M6.182 4.279v-.075h.213v.173h-.054m-.235-.097h.213v.173h-.213z" class="minimize" fill="none" stroke="#fff" stroke-width=".039" stroke-linecap="round" stroke-dashoffset="16.97" paint-order="markers fill stroke"/>
      </g>
    </g>
    <g class="title-bar-windows10">
      <path fill="#fff" paint-order="markers fill stroke" d="M2.132 4.147h5.156v.433H2.132z"/>
      <g class="title-bar-close">
        <path class="hover" fill="red" d="M6.432 4.147h.856v.433h-.856z"/>
        <g class="hover-icon" fill="none" stroke="#000" stroke-width=".03">
          <path d="M6.747 4.25l.227.226M6.747 4.476l.227-.227"/>
        </g>
      </g>
      <g class="title-bar-collapse">
        <path class="hover" fill="#e6e6e6" d="M4.721 4.147h.856v.433h-.856z"/>
        <path d="M5.266 4.363h-.234" fill="none" stroke="#000" stroke-width=".03"/>
      </g>
      <g class="title-bar-expand">
        <path class="hover" fill="#e6e6e6" d="M5.577 4.147h.856v.433h-.856z"/>
        <path class="expand" fill="none" stroke="#000" stroke-width=".028" stroke-linecap="round" stroke-dashoffset="16.97" paint-order="markers fill stroke" d="M5.901 4.259h.208v.208h-.208z"/>
        <path d="M6.06 4.413h.035v-.14h-.14v.035m-.04.145h.14v-.14h-.14z" class="minimize" fill="none" stroke="#000" stroke-width=".02"/>
      </g>
    </g>
    <g class="title-bar-mac">
      <path d="M2.393 4.08h4.64c.141 0 .255.113.255.254v.292h-5.15v-.292c0-.14.114-.255.256-.255z" fill="#333" paint-order="markers fill stroke" class="title-bar-bar"/>
      <g class="title-bar-close">
        <circle cx="2.436" cy="4.369" r=".115" fill="#ff2a2a" paint-order="markers fill stroke"/>
        <g class="hover" fill="none" stroke="#640000" stroke-width=".03">
          <path d="M2.378 4.31l.116.117M2.378 4.427l.116-.117"/>
        </g>
      </g>
      <g class="title-bar-collapse">
        <circle cx="2.859" cy="4.369" r=".115" fill="#fc0" paint-order="markers fill stroke"/>
        <path d="M2.793 4.369h.132" class="hover" fill="none" stroke="#5c4a00" stroke-width=".04"/>
      </g>
      <g class="title-bar-expand">
        <circle cx="3.281" cy="4.369" r=".115" fill="#00eb13" paint-order="markers fill stroke"/>
        <g class="minimize hover" fill="#006100">
          <path d="M3.372 4.374l-.086.086-.006-.093z"/>
          <path d="M3.19 4.363l.086-.085.006.092z"/>
        </g>
        <g class="expand hover" fill="#006100">
          <path d="M3.253 4.426l.086-.085.006.092zM3.309 4.311l-.086.086-.006-.092z"/>
        </g>
      </g>
    </g>
  </g>
  <g class="url-bar">
    <rect width="4.398" height=".704" x="2.514" y="4.928" ry=".244" fill="#fff" stroke="#4d4d4d" stroke-width=".072" stroke-linecap="round" stroke-linejoin="round" stroke-dashoffset="16.97" paint-order="markers fill stroke"/>
    <text style="line-height:1.25;-inkscape-font-specification:'Ubuntu, Normal';font-variant-ligatures:normal;font-variant-caps:normal;font-variant-numeric:normal;font-variant-east-asian:normal" x="2.987" y="5.475" font-weight="400" font-size=".585" font-family="Ubuntu" letter-spacing="0" word-spacing="0" stroke-width=".243">
      <tspan x="2.987" y="5.475" style="-inkscape-font-specification:'Ubuntu, Normal';font-variant-ligatures:normal;font-variant-caps:normal;font-variant-numeric:normal;font-variant-east-asian:normal">www.foo.bar</tspan>
    </text>
  </g>
  <g class="percent">
    <circle transform="rotate(-90)" cx="-7.507" cy="7.01" r="1.179" fill="#afe9af" paint-order="markers fill stroke"/>
    <circle transform="rotate(-90)" r="1.179" cy="7.01" cx="-7.507" class="percent-progress-bar" fill="none" stroke="#006d00" stroke-width=".274" stroke-linecap="round" stroke-linejoin="round" stroke-dashoffset="16.97" paint-order="markers fill stroke"/>
    <text style="line-height:1.25;text-align:center" x="6.988" y="7.863" font-size="1.044" font-family="sans-serif" letter-spacing="0" word-spacing="0" text-anchor="middle" fill="#006d00" stroke-width=".06">
      <tspan x="6.988" y="7.863" style="-inkscape-font-specification:'Ubuntu, Normal';font-variant-ligatures:normal;font-variant-caps:normal;font-variant-numeric:normal;font-variant-east-asian:normal;text-align:center" font-weight="400" font-family="Ubuntu">100</tspan>
    </text>
  </g>
  <g class="checkmark">
    <path d="M6.999 6.36a1.147 1.147 0 10.01 0z" fill="#fff"/>
    <path fill="green" d="M6.997 6.191a1.316 1.316 0 00-1.303 1.316 1.316 1.316 0 001.315 1.316 1.316 1.316 0 001.316-1.316A1.316 1.316 0 007.01 6.191a1.316 1.316 0 00-.012 0zm.693.674l.162.162-.96.96-.162.162a6.139 6.139 0 01-.161-.162l-.402-.402.161-.161.402.401z"/>
  </g>
  <g class="airplane" fill="#888f9b">
    <path d="M4.705 6.408s.315-.613.385-2.346l2.287.414.002-.214-2.25-1.285-.02-1.28s-.08-.539-.335-.74c-.05-.037-.087-.033-.138 0-.255.201-.335.74-.335.74l-.02 1.28-2.25 1.285.002.214 2.287-.414c.07 1.733.385 2.346.385 2.346"/>
    <path d="M6.032 6.182v-.314l-1.327-.46-1.323.46v.319l1.323-.212z"/>
    <rect width=".392" height=".635" x="5.435" y="2.875" ry=".102"/>
    <rect width=".392" height=".635" x="6.034" y="3.177" ry=".102"/>
    <rect width=".392" height=".635" x="-3.987" y="2.875" ry=".102" transform="scale(-1 1)"/>
    <rect width=".392" height=".635" x="-3.387" y="3.177" ry=".102" transform="scale(-1 1)"/>
    <path d="M2.896 4.549a.106.106 0 00-.106.106.106.106 0 000 .01l.09 1.545L3 4.67a.106.106 0 000-.016.106.106 0 00-.105-.106zm-.731.329a.106.106 0 00-.107.107.106.106 0 00.001.01l.089 1.543.122-1.537a.106.106 0 000-.016.106.106 0 00-.105-.107zm4.437-.329a.106.106 0 00-.106.106.106.106 0 000 .01l.089 1.544.122-1.538a.106.106 0 00.001-.016.106.106 0 00-.106-.106zm.674.329a.106.106 0 00-.106.107.106.106 0 000 .01l.09 1.543.121-1.537a.106.106 0 00.002-.016.106.106 0 00-.107-.107z"/>
  </g>
</svg>