<svg xmlns="http://www.w3.org/2000/svg" viewBox="0 0 9.413 7.684">
  <g class="browser">
    <path d="M2.387 4.285h4.64c.141 0 .255.113.255.255V7.4a.254.254 0 01-.255.254h-4.64a.254.254 0 01-.255-.255V4.54c0-.14.114-.255.256-.255z" fill="#fff" paint-order="markers fill stroke"/>
    <path d="M2.387 4.088h4.64c.141 0 .255.113.255.254v.292h-5.15v-.292c0-.14.114-.255.256-.255z" fill="#333" paint-order="markers fill stroke"/>
    <circle cx="2.43" cy="4.377" r=".115" fill="#ff2a2a" paint-order="markers fill stroke"/>
    <circle cx="2.853" cy="4.377" r=".115" fill="#fc0" paint-order="markers fill stroke"/>
    <circle cx="3.275" cy="4.377" r=".115" fill="#00d400" paint-order="markers fill stroke"/>
    <g class="page">
      <path opacity=".392" fill="#500" paint-order="markers fill stroke" d="M2.132 4.634h5.156v1.255H2.132z"/>
      <path d="M3.032 6.114h3.445m-3.445.31h2.945m-2.945.309h3.096" fill="none" stroke="gray" stroke-width=".064"/>
      <path opacity=".392" fill="#500" paint-order="markers fill stroke" d="M3.023 6.932h.693v.415h-.693zm.953 0h.693v.415h-.693z"/>
      <circle cx="4.383" cy="5.206" r=".504" fill="#6d06ff" fill-opacity=".579" paint-order="markers fill stroke"/>
      <circle cx="5.051" cy="5.206" r=".504" fill="#25ffc5" fill-opacity=".546" paint-order="markers fill stroke"/>
      <path d="M3.218 7.027l.068.12.07.119H3.08l.069-.12zm.945.233l-.111-.077-.012-.134.123-.058.122.058-.011.134z" fill="#714c4c" paint-order="markers fill stroke"/>
      <path d="M3.032 7.522h1.207" fill="none" stroke="gray" stroke-width=".064"/>
    </g>
    <g class="url-bar">
      <rect width="4.398" height=".704" x="2.508" y="4.936" ry=".244" fill="#fff" stroke="#4d4d4d" stroke-width=".072" stroke-linecap="round" stroke-linejoin="round" stroke-dashoffset="16.97" paint-order="markers fill stroke"/>
      <text style="line-height:1.25;-inkscape-font-specification:'Ubuntu, Normal';font-variant-ligatures:normal;font-variant-caps:normal;font-variant-numeric:normal;font-variant-east-asian:normal" x="2.981" y="5.483" font-weight="400" font-size=".585" font-family="Ubuntu" letter-spacing="0" word-spacing="0" stroke-width=".243">
        <tspan x="2.981" y="5.483" style="-inkscape-font-specification:'Ubuntu, Normal';font-variant-ligatures:normal;font-variant-caps:normal;font-variant-numeric:normal;font-variant-east-asian:normal">www.foo.bar</tspan>
      </text>
    </g>
  </g>
  <g class="file-img-2">
    <path d="M5.97 1.953l-.39-.444a.071.071 0 00-.054-.024h-.983a.083.083 0 00-.083.082v1.94a.083.083 0 00.083.082h1.362a.083.083 0 00.082-.082V2a.071.071 0 00-.018-.047z"/>
    <path d="M4.543 3.51V1.567h.956v.423c0 .022.018.04.041.04h.365v1.48z" fill="#e580ff"/>
    <path d="M4.686 3.214c-.034-.01-.06-.044-.054-.08V2.26c.013-.032.044-.06.08-.052h1.044c.032.013.06.044.052.08v.875c-.013.032-.044.06-.08.052-.348 0-.695.002-1.042 0zm.204-.419c.056-.065.109-.135.168-.198.057-.04.098.035.134.068.041.038.072.093.124.115.051-.007.078-.083.134-.065.095.094.183.194.274.291 0-.224.003-.448-.001-.672.003-.048-.052-.043-.052-.043-.278 0-.628-.003-.906.001-.07-.012-.045.075-.05.117v.597l.175-.21zm.594-.172c-.082-.019-.123-.125-.073-.193.043-.069.153-.074.201-.008.057.063.023.173-.057.198a.12.12 0 01-.072.003z" fill="#405"/>
  </g>
  <g class="file-img-1">
    <path d="M5.716 1.666l-.39-.445a.071.071 0 00-.053-.024h-.984a.083.083 0 00-.082.083v1.939a.083.083 0 00.082.082h1.362a.083.083 0 00.083-.082V1.713a.071.071 0 00-.018-.047z"/>
    <path d="M4.29 3.222V1.28h.955v.422c0 .023.019.041.042.041h.364v1.48z" fill="#e580ff"/>
    <path d="M4.433 2.926c-.035-.01-.061-.043-.055-.079v-.875c.014-.032.045-.059.08-.052h1.044c.032.013.06.044.053.08v.875c-.013.032-.045.06-.08.053-.348 0-.695.002-1.042-.002zm.203-.418c.057-.066.11-.136.168-.199.057-.04.098.035.134.068.041.038.072.093.125.115.05-.007.077-.083.133-.064.095.093.183.193.274.29 0-.224.003-.448 0-.672.003-.048-.053-.043-.053-.043-.278 0-.627-.003-.905.002-.071-.013-.046.074-.05.116v.598l.174-.211zm.594-.173c-.081-.018-.123-.125-.073-.192.044-.07.153-.075.202-.009.057.063.022.173-.057.198a.12.12 0 01-.072.003z" fill="#405"/>
  </g>
  <g class="file-img-0">
    <path d="M5.462 1.378l-.39-.444A.071.071 0 005.02.909h-.983a.083.083 0 00-.083.083v1.94a.083.083 0 00.083.082h1.362a.083.083 0 00.082-.083V1.425a.071.071 0 00-.018-.047z"/>
    <path d="M4.036 2.935V.992h.956v.422c0 .023.018.041.041.041h.365v1.48z" fill="#e580ff"/>
    <path d="M4.179 2.639c-.034-.01-.06-.044-.054-.08v-.874c.013-.032.044-.06.08-.053H5.25c.032.013.06.044.052.08v.875c-.013.032-.044.06-.08.053-.348 0-.695.002-1.042-.001zm.204-.419c.056-.066.109-.135.168-.198.057-.04.098.034.134.067.041.038.072.093.124.116.051-.008.078-.084.134-.065.095.094.183.193.274.29 0-.223.003-.448-.001-.672.003-.048-.052-.043-.052-.043-.278 0-.628-.002-.906.002-.07-.012-.045.075-.05.117v.597l.175-.211zm.594-.172c-.082-.02-.123-.126-.073-.193.043-.07.153-.074.201-.009.057.064.023.174-.057.198a.12.12 0 01-.072.004z" fill="#405"/>
  </g>
  <g class="file-js">
    <path d="M5.204 1.078L4.815.635a.071.071 0 00-.053-.024H3.78a.082.082 0 00-.083.082V2.63a.083.083 0 00.083.082h1.36a.082.082 0 00.082-.083V1.126a.071.071 0 00-.018-.047z"/>
    <path d="M3.78 2.633V.693h.954v.422c0 .022.019.041.042.041h.363v1.477z" fill="#f5de19"/>
    <path d="M4.515 2.1a.169.169 0 00.153.093c.064 0 .105-.032.105-.076 0-.053-.042-.072-.113-.103l-.039-.017c-.111-.047-.185-.107-.185-.233 0-.116.088-.205.227-.205a.229.229 0 01.22.124l-.121.078a.105.105 0 00-.1-.067.067.067 0 00-.074.067c0 .046.029.065.095.094l.04.016c.13.057.205.115.205.244 0 .14-.11.216-.256.216a.298.298 0 01-.283-.159zm-.548.012c.025.043.047.08.1.08.051 0 .083-.02.083-.097v-.527h.155v.529c0 .16-.094.233-.231.233a.24.24 0 01-.233-.141z"/>
  </g>
  <g class="file-css">
    <path d="M4.947.786L4.558.343A.071.071 0 004.505.32h-.982A.082.082 0 003.44.4v1.937c0 .045.037.082.083.082h1.359a.083.083 0 00.083-.082V.833a.071.071 0 00-.018-.047z"/>
    <path d="M3.523 2.341V.401h.954v.422c0 .023.018.041.041.041h.364v1.477z" fill="#1572b6"/>
    <path d="M3.81 1.086l.004.045.007.084.003.037h.635l-.015.17h-.417l.004.044.008.084.003.038h.387l-.02.215-.184.05-.185-.05-.012-.133h-.166l.023.26.34.095.34-.094.002-.028.028-.315.041-.457.004-.045h-.416z" fill="#fff"/>
  </g>
  <g class="file-html">
    <path d="M4.69.495L4.3.05a.071.071 0 00-.053-.024h-.982a.082.082 0 00-.082.082v1.937c0 .045.037.082.082.082h1.36a.083.083 0 00.082-.082V.54A.071.071 0 004.69.495z"/>
    <path d="M3.265 2.05V.11h.955V.53c0 .023.018.041.041.041h.364V2.05z" fill="#e44f26"/>
    <path d="M3.549.939l.004.042.038.43h.542l-.018.204-.174.047-.175-.047-.011-.125h-.157l.022.246.32.089h.001l.32-.09.003-.026.036-.411.004-.042h-.57l-.014-.16h.598l.004-.036.007-.08.003-.041h-.391z" fill="#fff"/>
  </g>
  <g class="percent">
    <circle transform="rotate(-90)" cx="-7.507" cy="7.01" r="1.179" fill="#afe9af" paint-order="markers fill stroke"/>
    <circle transform="rotate(-90)" r="1.179" cy="7.01" cx="-7.507" class="percent-progress-bar" fill="none" stroke="green" stroke-width=".274" stroke-linecap="round" stroke-linejoin="round" stroke-dashoffset="16.97" paint-order="markers fill stroke"/>
    <path d="M6.209 7.775h.154v-.53l-.168.033v-.085l.167-.034h.094v.616h.154v.08h-.401zm.792-.554q-.073 0-.11.072-.036.071-.036.214 0 .144.037.215.036.071.11.071.072 0 .108-.07.037-.072.037-.216 0-.143-.036-.214Q7.074 7.22 7 7.22zm0-.075q.117 0 .179.093.061.092.061.268 0 .176-.061.269-.062.092-.179.092-.117 0-.179-.092-.061-.093-.061-.269 0-.176.061-.268.062-.093.18-.093zm.607.075q-.072 0-.109.072-.036.071-.036.214 0 .144.036.215.037.071.11.071.073 0 .109-.07.037-.072.037-.216 0-.143-.037-.214-.036-.072-.11-.072zm0-.075q.117 0 .179.093.062.092.062.268 0 .176-.062.269-.061.092-.179.092-.116 0-.178-.092-.062-.093-.062-.269 0-.176.062-.268.062-.093.178-.093z" aria-label="100" fill="green"/>
  </g>
  <g class="percent">
    <path d="M6.999 6.36a1.147 1.147 0 10.01 0z" fill="#fff"/>
    <path fill="green" d="M6.997 6.191a1.316 1.316 0 00-1.303 1.316 1.316 1.316 0 001.315 1.316 1.316 1.316 0 001.316-1.316A1.316 1.316 0 007.01 6.191a1.316 1.316 0 00-.012 0zm.693.674l.162.162-.96.96-.162.162c-.054-.053-.11-.108-.161-.162l-.402-.402.161-.161.402.401z"/>
  </g>
  <g class="airplane" fill="#888f9b">
    <path d="M4.705 6.408s.315-.613.385-2.346l2.287.414.002-.214-2.25-1.285-.02-1.28s-.08-.539-.335-.74c-.05-.037-.087-.033-.138 0-.255.201-.335.74-.335.74l-.02 1.28-2.25 1.285.002.214 2.287-.414c.07 1.733.385 2.346.385 2.346"/>
    <path d="M6.032 6.182v-.314l-1.327-.46-1.323.46v.319l1.323-.212z"/>
    <rect width=".392" height=".635" x="5.435" y="2.875" ry=".102"/>
    <rect width=".392" height=".635" x="6.034" y="3.177" ry=".102"/>
    <rect width=".392" height=".635" x="-3.987" y="2.875" ry=".102" transform="scale(-1 1)"/>
    <rect width=".392" height=".635" x="-3.387" y="3.177" ry=".102" transform="scale(-1 1)"/>
    <path d="M2.896 4.549a.106.106 0 00-.106.106.106.106 0 000 .01L2.88 6.21 3 4.67a.106.106 0 000-.016.106.106 0 00-.105-.106zM2.165 4.878a.106.106 0 00-.107.107.106.106 0 00.001.01l.089 1.543.122-1.537a.106.106 0 000-.016.106.106 0 00-.105-.107zM6.602 4.549a.106.106 0 00-.106.106.106.106 0 000 .01l.089 1.544.122-1.538a.106.106 0 00.001-.016.106.106 0 00-.106-.106zM7.276 4.878a.106.106 0 00-.106.107.106.106 0 000 .01l.09 1.543.121-1.537a.106.106 0 00.002-.016.106.106 0 00-.107-.107z"/>
  </g>
</svg>