<svg xmlns="http://www.w3.org/2000/svg" viewBox="0 0 9.413 7.684">
  <g class="page">
    <path d="M.466.696l8.48-.003.239.37v.66H.32v-.66z" class="navbar-bg" fill="#5d8aff" paint-order="markers fill stroke"/>
    <path d="M1.656 1.48l-.274-.116.274-.46.273.46z" class="logo" fill="#0030ab" paint-order="markers fill stroke"/>
    <rect width=".94" height=".188" x="7.174" y="1.156" ry=".068" class="nav-link-2" fill="#0030ab" paint-order="markers fill stroke"/>
    <rect width=".94" height=".188" x="5.774" y="1.156" ry=".068" class="nav-link-1" fill="#0030ab" paint-order="markers fill stroke"/>
    <rect width=".94" height=".188" x="4.374" y="1.156" ry=".068" class="nav-link-0" fill="#0030ab" paint-order="markers fill stroke"/>
    <g class="page-content-column-0">
      <rect width="1.561" height="1.305" x="1.07" y="1.933" ry=".032" fill="#ffd287" paint-order="markers fill stroke"/>
      <path d="M1.118 3.725h1.437M1.118 4.171h.895M1.118 4.618h1.437" class="page-text" fill="none" stroke="#c9ccdf" stroke-width=".159"/>
    </g>
    <g class="page-content-column-1">
      <rect width="1.561" height="1.305" x="3.061" y="1.933" ry=".032" fill="#77ffd1" paint-order="markers fill stroke"/>
      <path d="M3.082 3.725h.964M3.082 4.171h1.437M3.082 4.618h1.437" class="page-text" fill="none" stroke="#c9ccdf" stroke-width=".159"/>
    </g>
    <g class="page-content-column-2">
      <rect width="1.561" height="1.305" x="5.053" y="1.933" ry=".032" fill="#e881ff" paint-order="markers fill stroke"/>
      <path d="M5.096 3.725h1.437M5.096 4.171h1.437M5.096 4.618h.817" class="page-text" fill="none" stroke="#c9ccdf" stroke-width=".159"/>
    </g>
    <g class="page-chat" paint-order="markers fill stroke">
      <rect width="1.561" height="3.536" x="6.986" y="1.933" ry=".086" fill="#acc1ff"/>
      <rect width="1.367" height=".272" x="7.076" y="5.063" ry=".007" fill="#f9f9f9"/>
    </g>
  </g>
  <g class="main-container">
    <g class="screen-container">
      <rect width="5.099" height="3.14" x="2.469" y="1.861" ry=".483" fill="none" stroke="#888f9b" stroke-width=".253" stroke-linecap="round" stroke-linejoin="round" stroke-dashoffset="16.97" paint-order="markers fill stroke"/>
      <path d="M4.541 4.924v.709s-.017.117-.078.182a.71.71 0 01-.22.119h1.551s-.16-.055-.22-.12a.39.39 0 01-.078-.181v-.709z" class="desktop-stand" fill="#888f9b"/>
    </g>
    <rect width="1.746" height="2.83" x="1.847" y="2.983" ry=".284" class="mobile" fill="#25385b" stroke="#888f9b" stroke-width=".251" stroke-linecap="round" stroke-linejoin="round"/>
    <rect width="9.545" height="6.856" x="-.066" y="5.934" ry="0" class="bg-hider" fill="#25385b" paint-order="markers fill stroke"/>
  </g>
  <g class="laptop-bottom" paint-order="markers fill stroke">
    <rect width="8.737" height=".555" x=".338" y="5.934" ry=".131" fill="#888f9b"/>
    <rect width="1.368" height=".193" x="4.022" y="-6.127" ry=".046" transform="scale(1 -1)" fill="#545a64"/>
  </g>
  <g class="latop-bottom" paint-order="markers fill stroke">
    <path d="M7.555 1.354l.516.042.062 4.75-.578.112z" fill="#888f9b"/>
    <circle cx="7.879" cy="3.724" r=".178" fill="#545a64"/>
  </g>
</svg>